<svg enable-background="new 0 0 64 64" viewBox="0 0 64 64" xmlns="http://www.w3.org/2000/svg"><path d="m32 3c-2.761 0-5 2.239-5 5h10c0-2.761-2.239-5-5-5z" fill="#4a81d4"/><path d="m29 27c0 1.657 1.343 3 3 3s3-1.343 3-3v-1h-6z" fill="#fffca8"/><path d="m28 50c0 3.866-3.134 7-7 7h22v-14h-22c3.866 0 7 3.134 7 7z" fill="#ededed"/><path d="m14 50c0-3.866 3.134-7 7-7h-3-8v-11c0-9.389 7.611-17 17-17v-7c-13.255 0-24 10.745-24 24v25h13 5c-3.866 0-7-3.134-7-7z" fill="#ededed"/><g fill="#103369"><path d="m21 57h-5v4h32v-4h-5z"/><path d="m43 43h3v-4h-28v4h3z"/><path d="m28 50c0-3.866-3.134-7-7-7s-7 3.134-7 7 3.134 7 7 7 7-3.134 7-7zm-7 4c-2.209 0-4-1.791-4-4s1.791-4 4-4 4 1.791 4 4-1.791 4-4 4z"/></g><circle cx="21" cy="50" fill="#4a81d4" r="4"/><path d="m27 26h2 6 2v-18h-10v7z" fill="#4a81d4"/><path d="m51 15c-5.523 0-10 4.477-10 10 0 1.479.33 2.878.906 4.141l-2.906 5.859 6.866-1.43c1.502.902 3.254 1.43 5.134 1.43 5.523 0 10-4.477 10-10s-4.477-10-10-10z" fill="#bdd3f4"/><path d="m54.536 21.464c-.905-.904-2.155-1.464-3.536-1.464s-2.631.56-3.536 1.464c-.904.905-1.464 2.155-1.464 3.536s.56 2.631 1.464 3.536c.905.904 2.155 1.464 3.536 1.464s2.631-.56 3.536-1.464c.904-.905 1.464-2.155 1.464-3.536s-.56-2.631-1.464-3.536z" fill="#d64528"/><path d="m54.536 25.536c-.905.904-2.155 1.464-3.536 1.464s-2.631-.56-3.536-1.464c-.56-.56-.965-1.262-1.21-2.036-.15.476-.254.974-.254 1.5 0 1.381.56 2.631 1.464 3.536.905.904 2.155 1.464 3.536 1.464s2.631-.56 3.536-1.464c.904-.905 1.464-2.155 1.464-3.536 0-.526-.104-1.024-.254-1.5-.245.773-.651 1.476-1.21 2.036z" fill="#c43f25"/><circle cx="49" cy="23" fill="#ed5d40" r="1"/><path d="m48 56h-4v-12h2c.553 0 1-.448 1-1v-4c0-.552-.447-1-1-1h-28c-.553 0-1 .448-1 1v3h-6v-10c0-8.485 6.644-15.429 15-15.949v9.949c0 .552.447 1 1 1h1c0 2.206 1.794 4 4 4s4-1.794 4-4h1c.553 0 1-.448 1-1v-18c0-3.309-2.691-6-6-6-2.975 0-5.444 2.179-5.913 5.023-13.363.483-24.087 11.498-24.087 24.977v25c0 .552.447 1 1 1h12v3c0 .552.447 1 1 1h32c.553 0 1-.448 1-1v-4c0-.552-.447-1-1-1zm-6 0h-15.726c1.667-1.467 2.726-3.61 2.726-6s-1.059-4.533-2.726-6h15.726zm-27-6c0-3.309 2.691-6 6-6s6 2.691 6 6-2.691 6-6 6-6-2.691-6-6zm4-10h26v2h-26zm13-11c-1.103 0-2-.897-2-2h4c0 1.103-.897 2-2 2zm4-4h-8v-16h8zm-4-21c1.859 0 3.411 1.28 3.858 3h-7.716c.447-1.72 1.999-3 3.858-3zm-28 28c0-12.347 9.78-22.449 22-22.975v5.025c-9.459.524-17 8.362-17 17.95v11c0 .552.447 1 1 1h5.726c-1.667 1.467-2.726 3.61-2.726 6s1.059 4.533 2.726 6h-11.726zm43 28h-30v-2h30z"/><path d="m21 45c-2.757 0-5 2.243-5 5s2.243 5 5 5 5-2.243 5-5-2.243-5-5-5zm0 8c-1.654 0-3-1.346-3-3s1.346-3 3-3 3 1.346 3 3-1.346 3-3 3z"/><path d="m51 14c-6.065 0-11 4.935-11 11 0 1.416.271 2.797.805 4.112l-2.7 5.444c-.171.343-.13.753.104 1.056.191.247.485.388.791.388.067 0 .136-.007.204-.021l6.493-1.353c1.629.9 3.453 1.374 5.303 1.374 6.065 0 11-4.935 11-11s-4.935-11-11-11zm0 20c-1.619 0-3.216-.445-4.619-1.288-.156-.094-.335-.143-.515-.143-.068 0-.137.007-.204.021l-4.853 1.011 1.992-4.016c.134-.27.14-.586.014-.86-.541-1.184-.815-2.437-.815-3.725 0-4.962 4.037-9 9-9s9 4.038 9 9-4.037 9-9 9z"/><path d="m55.885 21.529.822-.822-1.414-1.414-.822.822c-.722-.515-1.562-.871-2.471-1.025v-2.09h-2v2.09c-.909.154-1.749.51-2.471 1.025l-.822-.822-1.414 1.414.822.822c-.515.722-.871 1.562-1.025 2.471h-2.09v2h2.09c.154.909.51 1.749 1.025 2.471l-.822.822 1.414 1.414.822-.822c.722.515 1.562.871 2.471 1.025v2.09h2v-2.09c.909-.154 1.749-.51 2.471-1.025l.822.822 1.414-1.414-.822-.822c.515-.722.871-1.562 1.025-2.471h2.09v-2h-2.09c-.154-.909-.51-1.749-1.025-2.471zm-.885 3.471c0 2.206-1.794 4-4 4s-4-1.794-4-4 1.794-4 4-4 4 1.794 4 4z"/><path d="m49 23h1v2h-1z"/><path d="m52 25h1v2h-1z"/></svg>